<?xml version="1.0" encoding="UTF-8" standalone="no"?>
<svg
   xmlns:dc="http://purl.org/dc/elements/1.1/"
   xmlns:cc="http://creativecommons.org/ns#"
   xmlns:rdf="http://www.w3.org/1999/02/22-rdf-syntax-ns#"
   xmlns:svg="http://www.w3.org/2000/svg"
   xmlns="http://www.w3.org/2000/svg"
   viewBox="0 0 2560 1440"
   height="1440"
   width="2560"
   xml:space="preserve"
   id="svg2"
   version="1.1"><metadata
     id="metadata8"><rdf:RDF><cc:Work
         rdf:about=""><dc:format>image/svg+xml</dc:format><dc:type
           rdf:resource="http://purl.org/dc/dcmitype/StillImage" /></cc:Work></rdf:RDF></metadata><defs
     id="defs6"><clipPath
       id="clipPath18"
       clipPathUnits="userSpaceOnUse"><path
         id="path16"
         d="M 0,1080 H 1920 V 0 H 0 Z" /></clipPath></defs><g
     transform="matrix(1.3333333,0,0,-1.3333333,0,1440)"
     id="g10"><g
       id="g12"><g
         clip-path="url(#clipPath18)"
         id="g14"><g
           transform="translate(1688.7294,674.1426)"
           id="g20"><path
             id="path22"
             style="fill:#7c4dff;fill-opacity:1;fill-rule:nonzero;stroke:none"
             d="m 0,0 -102.424,-24.306 c -8.808,-2.61 -16.153,-7.231 -16.153,-16.152 v -187.369 c 0,-8.921 6.97,-14.055 16.153,-16.153 L 0,-268.285 c 8.921,0 16.153,7.232 16.153,16.152 v 235.98 C 16.153,-7.232 8.921,0 0,0" /></g><g
           transform="translate(1537.506,674.1426)"
           id="g24"><path
             id="path26"
             style="fill:#7c4dff;fill-opacity:1;fill-rule:nonzero;stroke:none"
             d="m 0,0 -180.56,-48.611 c -7.696,-1.948 -16.152,-7.232 -16.152,-16.153 v -138.757 c 0,-8.921 7.121,-13.394 16.152,-16.153 L 0,-268.285 c 8.921,0 16.153,7.232 16.153,16.152 v 235.98 C 16.153,-7.232 8.921,0 0,0" /></g><g
           transform="translate(1807.6115,540.9362)"
           id="g28"><path
             id="path30"
             style="fill:#7c4dff;fill-opacity:1;fill-rule:nonzero;stroke:none"
             d="m 0,0 -70.93,-24.306 c -8.461,-2.549 -15.305,-6.852 -15.305,-15.305 v -55.857 c 0,-8.453 6.748,-12.691 15.305,-15.305 L 0,-135.079 c 8.453,0 15.305,6.852 15.305,15.305 V -15.305 C 15.305,-6.852 8.453,0 0,0" /></g><g
           transform="translate(208.1111,483.2141)"
           id="g32"><path
             id="path34"
             style="fill:#ffffff;fill-opacity:1;fill-rule:nonzero;stroke:none"
             d="m 0,0 -64.898,169.562 h -46.13 v -222.69 h 39.767 V 83.35 l 51.536,-135.205 -0.319,-1.273 H 19.723 L 19.405,-51.855 70.942,83.35 V -53.128 h 39.765 v 222.69 H 64.58 Z" /></g><g
           transform="translate(443.6334,474.6245)"
           id="g36"><path
             id="path38"
             style="fill:#ffffff;fill-opacity:1;fill-rule:nonzero;stroke:none"
             d="m 0,0 c -7.952,-8.271 -18.611,-12.406 -31.971,-12.406 -13.361,0 -24.074,4.135 -32.132,12.406 -8.062,8.271 -12.088,19.828 -12.088,34.675 0,14.844 4.026,26.407 12.088,34.678 8.058,8.271 18.771,12.406 32.132,12.406 13.36,0 24.019,-4.135 31.971,-12.406 C 7.954,61.082 11.931,49.519 11.931,34.675 11.931,19.828 7.954,8.271 0,0 m 27.519,94.165 c -7.214,7.209 -15.907,12.776 -26.086,16.703 -10.181,3.922 -21.425,5.885 -33.723,5.885 -12.301,0 -23.492,-1.963 -33.563,-5.885 -10.074,-3.927 -18.719,-9.439 -25.927,-16.542 -7.212,-7.109 -12.78,-15.698 -16.702,-25.769 -3.925,-10.076 -5.884,-21.265 -5.884,-33.563 0,-12.303 1.959,-23.542 5.884,-33.721 3.922,-10.181 9.385,-18.879 16.385,-26.088 6.998,-7.211 15.374,-12.778 25.132,-16.7 9.752,-3.922 20.36,-5.886 31.812,-5.886 11.661,0 21.474,1.804 29.428,5.409 7.952,3.603 13.838,7.844 17.656,12.725 v -15.271 h 38.175 v 78.896 c 0,12.299 -1.963,23.542 -5.885,33.722 -3.927,10.179 -9.494,18.874 -16.702,26.085" /></g><g
           transform="translate(611.2869,468.8975)"
           id="g40"><path
             id="path42"
             style="fill:#ffffff;fill-opacity:1;fill-rule:nonzero;stroke:none"
             d="m 0,0 c -6.895,-4.452 -15.221,-6.68 -24.973,-6.68 -13.361,0 -24.019,4.136 -31.971,12.407 -7.954,8.271 -11.93,19.828 -11.93,34.675 0,14.844 3.976,26.407 11.93,34.677 7.952,8.271 18.61,12.407 31.971,12.407 9.544,0 17.761,-2.122 24.656,-6.363 C 6.571,76.878 11.716,70.834 15.112,62.99 h 39.766 c -4.246,18.239 -13.361,32.714 -27.359,43.425 -13.998,10.707 -31.391,16.065 -52.173,16.065 -12.304,0 -23.542,-1.963 -33.722,-5.885 -10.181,-3.927 -18.879,-9.439 -26.087,-16.542 -7.212,-7.109 -12.78,-15.698 -16.702,-25.769 -3.926,-10.076 -5.884,-21.265 -5.884,-33.563 0,-12.303 1.958,-23.542 5.884,-33.721 3.922,-10.181 9.49,-18.879 16.702,-26.088 7.208,-7.211 15.906,-12.778 26.087,-16.7 10.18,-3.922 21.418,-5.886 33.722,-5.886 20.996,0 38.493,5.409 52.491,16.224 13.997,10.816 23.114,25.555 27.359,44.221 H 15.429 C 12.034,10.708 6.89,4.454 0,0" /></g><g
           transform="translate(814.4775,652.7761)"
           id="g44"><path
             id="path46"
             style="fill:#ffffff;fill-opacity:1;fill-rule:nonzero;stroke:none"
             d="m 0,0 h -173.062 v -36.584 h 66.488 v -186.105 h 39.767 V -36.584 H 0 Z" /></g><g
           transform="translate(826.2084,531.8875)"
           id="g48"><path
             id="path50"
             style="fill:#ffffff;fill-opacity:1;fill-rule:nonzero;stroke:none"
             d="m 0,0 c 3.391,7.844 8.481,13.888 15.271,18.133 6.784,4.241 14.952,6.363 24.496,6.363 9.544,0 17.76,-2.122 24.654,-6.363 C 71.311,13.888 76.456,7.844 79.851,0 Z M 99.576,37.063 C 92.362,44.166 83.717,49.678 73.648,53.605 63.572,57.527 52.382,59.49 40.085,59.49 27.782,59.49 16.544,57.527 6.363,53.605 -3.817,49.678 -12.515,44.166 -19.723,37.063 c -7.214,-7.109 -12.78,-15.698 -16.702,-25.769 -3.927,-10.076 -5.886,-21.265 -5.886,-33.563 0,-12.303 1.959,-23.542 5.886,-33.721 3.922,-10.181 9.488,-18.879 16.702,-26.088 7.208,-7.211 15.906,-12.778 26.086,-16.7 10.181,-3.922 21.419,-5.886 33.722,-5.886 19.297,0 35.68,4.663 49.151,13.998 13.466,9.329 22.851,22.054 28.154,38.176 H 75.715 c -7.849,-11.454 -19.833,-17.18 -35.948,-17.18 -11.452,0 -20.893,3.022 -28.313,9.067 -7.427,6.044 -12.2,14.579 -14.317,25.609 h 124.389 c 0.208,2.117 0.368,4.185 0.477,6.204 0.105,2.014 0.158,4.186 0.158,6.521 0,12.298 -1.963,23.487 -5.885,33.563 -3.925,10.071 -9.494,18.66 -16.7,25.769" /></g><g
           transform="translate(1065.8678,468.8975)"
           id="g52"><path
             id="path54"
             style="fill:#ffffff;fill-opacity:1;fill-rule:nonzero;stroke:none"
             d="m 0,0 c -6.895,-4.452 -15.221,-6.68 -24.973,-6.68 -13.361,0 -24.019,4.136 -31.971,12.407 -7.954,8.271 -11.93,19.828 -11.93,34.675 0,14.844 3.976,26.407 11.93,34.677 7.952,8.271 18.61,12.407 31.971,12.407 9.544,0 17.761,-2.122 24.656,-6.363 C 6.571,76.878 11.716,70.834 15.112,62.99 h 39.765 c -4.245,18.239 -13.36,32.714 -27.358,43.425 -13.998,10.707 -31.391,16.065 -52.174,16.065 -12.303,0 -23.541,-1.963 -33.721,-5.885 -10.181,-3.927 -18.879,-9.439 -26.087,-16.542 -7.212,-7.109 -12.78,-15.698 -16.702,-25.769 -3.926,-10.076 -5.884,-21.265 -5.884,-33.563 0,-12.303 1.958,-23.542 5.884,-33.721 3.922,-10.181 9.49,-18.879 16.702,-26.088 7.208,-7.211 15.906,-12.778 26.087,-16.7 10.18,-3.922 21.418,-5.886 33.721,-5.886 20.997,0 38.494,5.409 52.492,16.224 13.997,10.816 23.113,25.555 27.359,44.221 H 15.429 C 12.034,10.708 6.89,4.454 0,0" /></g><g
           transform="translate(1273.8762,547.1583)"
           id="g56"><path
             id="path58"
             style="fill:#ffffff;fill-opacity:1;fill-rule:nonzero;stroke:none"
             d="m 0,0 c -2.656,7.844 -6.736,15.111 -12.248,21.792 -5.518,6.681 -12.567,12.193 -21.156,16.542 -8.59,4.346 -18.824,6.523 -30.7,6.523 -12.939,0 -23.437,-2.546 -31.495,-7.636 -3.11,-1.964 -5.969,-4.106 -8.589,-6.417 v 74.814 h -38.176 v -222.69 h 38.176 v 93.849 c 0,5.725 0.954,10.601 2.862,14.633 1.911,4.026 4.455,7.422 7.636,10.18 3.181,2.754 6.89,4.773 11.135,6.045 4.239,1.272 8.693,1.909 13.361,1.909 4.663,0 9.117,-0.637 13.362,-1.909 4.239,-1.272 7.953,-3.291 11.134,-6.045 3.181,-2.758 5.727,-6.154 7.635,-10.18 1.909,-4.032 2.863,-8.908 2.863,-14.633 v -93.849 H 3.975 v 94.803 C 3.975,-15.271 2.649,-7.849 0,0" /></g></g></g></g></svg>